<svg width="155" height="24" viewBox="0 0 155 24" fill="none" xmlns="http://www.w3.org/2000/svg">
<path d="M22.7767 5.127C21.9278 4.62098 20.9501 4.54139 19.7789 4.7605C19.0233 4.90199 18.2019 5.19283 17.3215 5.63596C17.3343 5.32842 17.3412 5.02383 17.3412 4.72415H17.3314C17.3579 4.58659 17.3717 4.44707 17.3717 4.30656C17.3717 1.92778 13.4827 0 8.68583 0C3.88897 0 0 1.92876 0 4.30656C0 4.44707 0.0137562 4.58659 0.0402853 4.72415H0.0353724C0.00196536 9.72538 1.03169 14.7364 0.952101 19.7327C0.913781 22.1096 3.86932 24 8.66323 24C13.4571 24 15.8359 22.0644 15.8359 19.7327C15.8359 19.4154 15.8418 19.098 15.8526 18.7787C18.3689 18.9143 20.4775 17.7647 21.9563 16.1503C23.493 14.4741 24.4343 12.3105 24.676 10.2815C24.9177 8.25252 24.4706 6.13805 22.7738 5.12601L22.7767 5.127ZM8.71923 2.4279C12.3793 2.4279 15.3456 3.43208 15.3456 4.67011C15.3456 4.68779 15.3446 4.70646 15.3436 4.72415C15.3427 4.74282 15.3407 4.76148 15.3378 4.78015C15.3348 4.79784 15.3319 4.81454 15.3279 4.83223L15.3269 4.83714C15.323 4.85384 15.3191 4.86957 15.3142 4.88529C15.3132 4.88823 15.3132 4.8902 15.3122 4.89315C15.3073 4.90887 15.3024 4.92361 15.2975 4.93933C15.2965 4.94228 15.2955 4.9462 15.2945 4.94915C15.2886 4.96389 15.2827 4.97863 15.2768 4.99337C15.2749 4.9973 15.2739 5.00123 15.2719 5.00516C15.266 5.01891 15.2591 5.03365 15.2513 5.04741C15.2493 5.05134 15.2474 5.05625 15.2454 5.06018C15.2385 5.07394 15.2307 5.08769 15.2228 5.10047C15.2198 5.10538 15.2179 5.10931 15.2149 5.11422C15.2071 5.127 15.1982 5.14075 15.1904 5.15352C15.1874 5.15844 15.1845 5.16335 15.1805 5.16826C15.1717 5.18104 15.1629 5.19381 15.153 5.20658C15.1491 5.2115 15.1462 5.21641 15.1422 5.2223C15.1324 5.23508 15.1226 5.24687 15.1127 5.25964C15.1088 5.26455 15.1049 5.27045 15.1 5.27536C15.0902 5.28715 15.0793 5.29993 15.0685 5.31172C15.0636 5.31663 15.0597 5.32253 15.0548 5.32744C15.044 5.33923 15.0322 5.35102 15.0214 5.36281C15.0165 5.36871 15.0106 5.37362 15.0056 5.37951C14.9939 5.3913 14.9821 5.4031 14.9703 5.4139C14.9644 5.4198 14.9585 5.42471 14.9526 5.43061C14.9408 5.4424 14.928 5.45321 14.9153 5.46401C14.9084 5.46991 14.9025 5.4758 14.8956 5.48072C14.8828 5.49153 14.8701 5.50332 14.8563 5.51412C14.8494 5.52002 14.8425 5.52592 14.8357 5.53181C14.8219 5.54262 14.8082 5.55343 14.7944 5.56423C14.7865 5.57013 14.7797 5.57603 14.7718 5.58192C14.758 5.59273 14.7433 5.60354 14.7286 5.61336C14.7207 5.61926 14.7128 5.62515 14.705 5.63105C14.6902 5.64186 14.6755 5.65168 14.6608 5.66151C14.6519 5.6674 14.6441 5.6733 14.6352 5.67919C14.6205 5.68902 14.6048 5.69885 14.589 5.70965C14.5802 5.71555 14.5704 5.72145 14.5615 5.72734C14.5458 5.73717 14.5301 5.74699 14.5144 5.75682C14.5045 5.76271 14.4947 5.76861 14.4849 5.7745C14.4692 5.78433 14.4525 5.79415 14.4358 5.803C14.4259 5.80889 14.4151 5.81479 14.4053 5.82068C14.3886 5.83051 14.3719 5.83935 14.3542 5.84918C14.3434 5.85507 14.3326 5.86097 14.3218 5.86686C14.3051 5.87571 14.2874 5.88553 14.2697 5.89438C14.2579 5.90027 14.2471 5.90617 14.2353 5.91206C14.2176 5.9209 14.2 5.92975 14.1813 5.93859C14.1695 5.94448 14.1577 5.95038 14.1459 5.95628C14.1272 5.96512 14.1096 5.97396 14.0909 5.9828C14.0781 5.9887 14.0663 5.9946 14.0535 6.00049C14.0349 6.00933 14.0162 6.0172 13.9966 6.02604C13.9838 6.03193 13.971 6.03783 13.9573 6.04274C13.9386 6.0506 13.9189 6.05944 13.8993 6.06731C13.8855 6.0732 13.8718 6.0791 13.859 6.08401C13.8394 6.09187 13.8197 6.09973 13.8 6.10857C13.7863 6.11447 13.7716 6.11938 13.7578 6.12528C13.7381 6.13314 13.7175 6.141 13.6969 6.14886C13.6821 6.15475 13.6684 6.15967 13.6536 6.16556C13.633 6.17342 13.6124 6.18128 13.5917 6.18816C13.577 6.19406 13.5613 6.19897 13.5465 6.20486C13.5259 6.21272 13.5053 6.2196 13.4837 6.22746C13.4679 6.23336 13.4522 6.23827 13.4365 6.24417C13.4159 6.25104 13.3943 6.2589 13.3726 6.26578C13.3569 6.2707 13.3402 6.27659 13.3245 6.2815C13.3029 6.28838 13.2813 6.29526 13.2596 6.30214C13.2429 6.30705 13.2262 6.31295 13.2095 6.31786C13.1879 6.32474 13.1663 6.33161 13.1437 6.33849C13.126 6.3434 13.1093 6.3493 13.0916 6.35421C13.07 6.36109 13.0474 6.36699 13.0248 6.37386C13.0071 6.37878 12.9894 6.38369 12.9718 6.3886C12.9492 6.3945 12.9266 6.40138 12.904 6.40727C12.8853 6.41218 12.8676 6.4171 12.8489 6.42201C12.8263 6.4279 12.8037 6.4338 12.7811 6.4397C12.7625 6.44461 12.7438 6.44952 12.7241 6.45443C12.7015 6.46033 12.678 6.46622 12.6544 6.47212C12.6357 6.47703 12.6161 6.48195 12.5964 6.48588C12.5728 6.49177 12.5493 6.49767 12.5257 6.50258C12.506 6.50749 12.4864 6.51142 12.4667 6.51634C12.4431 6.52223 12.4196 6.52714 12.396 6.53304C12.3763 6.53795 12.3557 6.54188 12.3351 6.54679C12.3115 6.55171 12.2879 6.5576 12.2633 6.56252C12.2427 6.56743 12.2221 6.57136 12.2014 6.57529C12.1769 6.5802 12.1533 6.58511 12.1287 6.59003C12.1081 6.59396 12.0865 6.59887 12.0658 6.6028C12.0413 6.60771 12.0167 6.61263 11.9921 6.61754C11.9705 6.62147 11.9489 6.6254 11.9283 6.62933C11.9037 6.63424 11.8791 6.63817 11.8536 6.64309C11.832 6.64702 11.8094 6.65095 11.7878 6.65488C11.7632 6.65979 11.7377 6.66372 11.7131 6.66765C11.6905 6.67158 11.6679 6.67551 11.6453 6.67944C11.6207 6.68337 11.5952 6.6873 11.5696 6.69221C11.547 6.69614 11.5235 6.69909 11.5009 6.70302C11.4753 6.70695 11.4498 6.71088 11.4242 6.71481C11.4006 6.71874 11.378 6.72169 11.3545 6.72562C11.3289 6.72955 11.3034 6.73348 11.2778 6.73643C11.2542 6.73938 11.2297 6.74331 11.2061 6.74625C11.1805 6.75018 11.155 6.75313 11.1295 6.75706C11.1049 6.76001 11.0803 6.76296 11.0558 6.76689C11.0302 6.76984 11.0047 6.77377 10.9781 6.77671C10.9536 6.77966 10.929 6.78261 10.9044 6.78556C10.8789 6.7885 10.8524 6.79145 10.8268 6.7944C10.8023 6.79735 10.7767 6.8003 10.7521 6.80226C10.7256 6.80521 10.7001 6.80816 10.6735 6.8111C10.648 6.81405 10.6225 6.81602 10.5979 6.81896C10.5714 6.82191 10.5448 6.82388 10.5183 6.82682C10.4928 6.82879 10.4672 6.83174 10.4417 6.8337C10.4151 6.83567 10.3886 6.83861 10.3611 6.84058C10.3336 6.84254 10.308 6.84451 10.2815 6.84746C10.255 6.84942 10.2294 6.85139 10.2029 6.85434C10.1764 6.85728 10.1479 6.85827 10.1204 6.86023C10.0948 6.8622 10.0693 6.86416 10.0427 6.86613C10.0152 6.86809 9.98674 6.87006 9.95922 6.87202C9.93368 6.87399 9.90715 6.87497 9.8816 6.87694C9.85311 6.8789 9.82461 6.87988 9.79514 6.88185C9.76959 6.88283 9.74404 6.8848 9.7185 6.88578C9.68902 6.88774 9.65954 6.88872 9.63007 6.88971C9.60452 6.89069 9.57996 6.89167 9.55441 6.89364C9.52493 6.89462 9.49447 6.8956 9.465 6.89757C9.43945 6.89855 9.41488 6.89953 9.38934 6.90052C9.35888 6.9015 9.32842 6.90248 9.29796 6.90346C9.27242 6.90445 9.24785 6.90543 9.2223 6.90543C9.19086 6.90641 9.15942 6.90641 9.127 6.90739C9.10243 6.90838 9.07885 6.90838 9.05429 6.90936C9.01695 6.91034 8.98059 6.91034 8.94326 6.91034C8.92361 6.91034 8.90494 6.91132 8.88529 6.91132C8.83026 6.91132 8.77426 6.91231 8.71923 6.91231H8.71629C8.6593 6.91231 8.60329 6.91231 8.5463 6.91132C8.5296 6.91132 8.5129 6.91132 8.49619 6.91034C8.45689 6.91034 8.41661 6.90936 8.3773 6.90838C8.35569 6.90838 8.33407 6.90739 8.31245 6.90739C8.27806 6.90641 8.24368 6.90641 8.21027 6.90543C8.18767 6.90445 8.16507 6.90445 8.14149 6.90346C8.10906 6.90248 8.07566 6.9015 8.04323 6.90052C8.02063 6.89953 7.99804 6.89855 7.97544 6.89757C7.94301 6.89659 7.91059 6.8956 7.87816 6.89364C7.85556 6.89265 7.83296 6.89167 7.81037 6.89069C7.77794 6.88873 7.7465 6.88774 7.71408 6.88578C7.69148 6.8848 7.66888 6.88283 7.6453 6.88185C7.61385 6.87988 7.58241 6.8789 7.55097 6.87694C7.52739 6.87595 7.50479 6.87399 7.48121 6.87202C7.45075 6.87006 7.42029 6.86809 7.38983 6.86613C7.36625 6.86416 7.34365 6.86318 7.32007 6.86121C7.28961 6.85925 7.25915 6.85728 7.22967 6.85434C7.20609 6.85237 7.18251 6.85041 7.15893 6.84844C7.12945 6.84648 7.10096 6.84353 7.07148 6.84156C7.04692 6.8396 7.02334 6.83763 6.99975 6.83468C6.97126 6.83174 6.94277 6.82977 6.91427 6.82682C6.89069 6.82486 6.86711 6.82191 6.84353 6.81995C6.81503 6.817 6.78752 6.81405 6.75903 6.8111C6.73545 6.80914 6.71186 6.80619 6.68828 6.80324C6.66077 6.80029 6.63228 6.79735 6.60477 6.7944C6.58118 6.79145 6.55859 6.7885 6.535 6.78654C6.50749 6.78359 6.47998 6.77966 6.45247 6.77671C6.42987 6.77377 6.40629 6.77082 6.38369 6.76787C6.35618 6.76394 6.32867 6.76099 6.30214 6.75706C6.27954 6.75411 6.25694 6.75117 6.23434 6.74822C6.20781 6.74429 6.1803 6.74134 6.15377 6.73741C6.13117 6.73446 6.10857 6.73053 6.08597 6.72759C6.05944 6.72366 6.0339 6.71972 6.00737 6.71579C5.98477 6.71186 5.96217 6.70892 5.93957 6.70499C5.91403 6.70106 5.8875 6.69713 5.86195 6.6932C5.83935 6.68927 5.81773 6.68632 5.79514 6.68239C5.76959 6.67846 5.74404 6.67354 5.7185 6.66961C5.6959 6.66568 5.67428 6.66175 5.65267 6.65782C5.62712 6.65291 5.60255 6.64898 5.57799 6.64407C5.55637 6.64014 5.53378 6.63621 5.51216 6.63228C5.4876 6.62736 5.46303 6.62343 5.43945 6.61852C5.41783 6.61459 5.39622 6.60968 5.3746 6.60575C5.35004 6.60084 5.32646 6.59592 5.30287 6.59101C5.28126 6.58708 5.26062 6.58217 5.23901 6.57824C5.21543 6.57332 5.19086 6.56841 5.16826 6.5635C5.14763 6.55859 5.12601 6.55466 5.10538 6.54974C5.0818 6.54483 5.0592 6.53992 5.03562 6.53402C5.01498 6.52911 4.99435 6.5242 4.97273 6.51928C4.95014 6.51437 4.92754 6.50847 4.90494 6.50356C4.8843 6.49865 4.86367 6.49374 4.84304 6.48882C4.82044 6.48293 4.79882 6.47801 4.77622 6.47212C4.75559 6.46721 4.73594 6.46229 4.71629 6.4564C4.69467 6.4505 4.67207 6.44461 4.65045 6.4397C4.6308 6.43478 4.61115 6.42889 4.5915 6.42397C4.56988 6.41808 4.54827 6.41218 4.52763 6.40629C4.50798 6.40039 4.48833 6.39548 4.46868 6.38959C4.44805 6.38369 4.42741 6.37779 4.40678 6.3719C4.38713 6.366 4.36846 6.36109 4.34881 6.3552C4.32818 6.3493 4.30754 6.3434 4.28789 6.33653C4.26922 6.33063 4.25055 6.32474 4.2309 6.31884C4.21125 6.31295 4.1916 6.30607 4.17195 6.30017C4.1523 6.29428 4.13461 6.28838 4.11594 6.28249C4.09629 6.27659 4.07762 6.26971 4.05797 6.26382C4.03832 6.25792 4.02162 6.25104 4.00295 6.24515C3.98428 6.23827 3.96561 6.23238 3.94694 6.2255C3.92827 6.21862 3.91157 6.21272 3.8929 6.20683C3.87423 6.19995 3.85655 6.19406 3.83886 6.18718C3.82117 6.1803 3.80349 6.1744 3.7858 6.16753C3.76812 6.16065 3.75043 6.15377 3.73373 6.14788C3.71702 6.14198 3.69934 6.13412 3.68165 6.12724C3.66396 6.12036 3.64726 6.11349 3.63056 6.10661C3.61385 6.09973 3.59715 6.09285 3.58045 6.08597C3.56374 6.0791 3.54704 6.07222 3.53132 6.06534C3.5156 6.05846 3.49791 6.05158 3.48219 6.04471C3.46647 6.03783 3.45075 6.03095 3.43405 6.02407C3.41734 6.0172 3.40162 6.00933 3.3859 6.00246C3.37018 5.99558 3.35544 5.9887 3.33972 5.98084C3.324 5.97298 3.30828 5.9661 3.29256 5.95824C3.27782 5.95136 3.26308 5.9435 3.24834 5.93662C3.2336 5.92975 3.21788 5.92189 3.20314 5.91403C3.18841 5.90715 3.17465 5.89929 3.15991 5.89241C3.14517 5.88553 3.13043 5.87767 3.11668 5.86981C3.10292 5.86195 3.08917 5.85507 3.07541 5.84721C3.06166 5.83935 3.04692 5.83149 3.03316 5.82363C3.02039 5.81577 3.00663 5.80889 2.99386 5.80103C2.98109 5.79317 2.96635 5.78531 2.95259 5.77745C2.93982 5.76959 2.92704 5.76271 2.91525 5.75485C2.90346 5.74699 2.88873 5.73913 2.87595 5.73029C2.86416 5.72243 2.85237 5.71457 2.8396 5.70769C2.82682 5.70081 2.81405 5.69099 2.80128 5.68313C2.78949 5.67526 2.77868 5.6674 2.76689 5.65954C2.75411 5.6507 2.74232 5.64284 2.73053 5.634C2.71973 5.62614 2.70892 5.61828 2.69909 5.61041C2.6873 5.60157 2.67551 5.59273 2.66372 5.58487C2.65389 5.57701 2.64309 5.56915 2.63326 5.56129C2.62245 5.55244 2.61066 5.5436 2.59985 5.53476C2.59003 5.5269 2.58118 5.51904 2.57136 5.51118C2.56055 5.50233 2.54974 5.49349 2.53992 5.48465C2.53107 5.47679 2.52223 5.46893 2.51339 5.46107C2.50356 5.45222 2.49275 5.44338 2.48391 5.43355C2.47507 5.42569 2.46721 5.41783 2.45935 5.40997C2.44952 5.40113 2.44068 5.3913 2.43085 5.38246C2.42299 5.3746 2.41513 5.36674 2.40825 5.35888C2.39941 5.34905 2.39057 5.34021 2.38172 5.33039C2.37485 5.32253 2.36797 5.31466 2.36109 5.3068C2.35323 5.29698 2.34439 5.28814 2.33653 5.27831C2.32965 5.27045 2.32375 5.26259 2.31688 5.25473C2.30902 5.2449 2.30115 5.23508 2.29428 5.22525C2.28838 5.21739 2.28249 5.20855 2.27659 5.20069C2.26971 5.19086 2.26283 5.18104 2.25596 5.17121C2.25006 5.16335 2.24515 5.15451 2.24024 5.14665C2.23434 5.13682 2.22746 5.127 2.22157 5.11717C2.21665 5.10931 2.21272 5.10145 2.20781 5.09261C2.20192 5.08278 2.19602 5.07197 2.19111 5.06215C2.18718 5.05429 2.18325 5.04643 2.17932 5.03758C2.1744 5.02677 2.16949 5.01695 2.16458 5.00614C2.16065 4.99828 2.1577 4.99042 2.15475 4.98256C2.15082 4.97175 2.14591 4.96193 2.14198 4.95112C2.13903 4.94326 2.13707 4.9354 2.13412 4.92754C2.13019 4.91673 2.12724 4.90592 2.12331 4.89609C2.12135 4.88823 2.11938 4.88037 2.11742 4.87251C2.11447 4.8617 2.11152 4.8509 2.10956 4.84009C2.10759 4.83223 2.10661 4.82437 2.10563 4.81651C2.10366 4.8057 2.10071 4.79391 2.09973 4.7831C2.09875 4.77524 2.09776 4.76836 2.09678 4.7605C2.0958 4.74871 2.09383 4.73692 2.09285 4.72611C2.09187 4.70744 2.09089 4.68877 2.09089 4.67109C2.09089 3.43306 5.05723 2.42987 8.71727 2.42987L8.71923 2.4279ZM22.4937 10.0653C22.31 11.607 21.5642 13.3923 20.3803 14.6844C19.2424 15.9263 17.805 16.6888 15.998 16.5886C16.2614 13.7598 16.787 10.929 17.0975 8.2928C19.6482 6.66274 21.07 6.64898 21.692 7.02039C22.3218 7.39573 22.6765 8.52469 22.4928 10.0663L22.4937 10.0653Z" fill="#FF9314"/>
<path d="M44.2283 9.16C43.7083 8.6 43.2016 8.22667 42.7083 8.04C42.2283 7.85333 41.7416 7.76 41.2483 7.76C40.5149 7.76 39.8483 7.89333 39.2483 8.16C38.6616 8.41333 38.1549 8.77333 37.7283 9.24C37.3016 9.69333 36.9683 10.2267 36.7283 10.84C36.5016 11.4533 36.3883 12.1133 36.3883 12.82C36.3883 13.58 36.5016 14.28 36.7283 14.92C36.9683 15.56 37.3016 16.1133 37.7283 16.58C38.1549 17.0467 38.6616 17.4133 39.2483 17.68C39.8483 17.9467 40.5149 18.08 41.2483 18.08C41.8216 18.08 42.3749 17.9467 42.9083 17.68C43.4549 17.4 43.9616 16.96 44.4283 16.36L46.5083 17.84C45.8683 18.72 45.0883 19.36 44.1683 19.76C43.2483 20.16 42.2683 20.36 41.2283 20.36C40.1349 20.36 39.1283 20.1867 38.2083 19.84C37.3016 19.48 36.5149 18.98 35.8483 18.34C35.1949 17.6867 34.6816 16.9067 34.3083 16C33.9349 15.0933 33.7483 14.0867 33.7483 12.98C33.7483 11.8467 33.9349 10.82 34.3083 9.9C34.6816 8.96667 35.1949 8.17333 35.8483 7.52C36.5149 6.86667 37.3016 6.36667 38.2083 6.02C39.1283 5.66 40.1349 5.48 41.2283 5.48C42.1883 5.48 43.0749 5.65333 43.8883 6C44.7149 6.33333 45.4816 6.90667 46.1883 7.72L44.2283 9.16Z" fill="black"/>
<path d="M53.9797 18.68H53.9197C53.573 19.2267 53.133 19.6267 52.5997 19.88C52.0663 20.12 51.4797 20.24 50.8397 20.24C50.3997 20.24 49.9664 20.18 49.5397 20.06C49.1264 19.94 48.753 19.76 48.4197 19.52C48.0997 19.28 47.8397 18.98 47.6397 18.62C47.4397 18.26 47.3397 17.84 47.3397 17.36C47.3397 16.84 47.433 16.4 47.6197 16.04C47.8064 15.6667 48.053 15.36 48.3597 15.12C48.6797 14.8667 49.0463 14.6667 49.4597 14.52C49.873 14.3733 50.2997 14.2667 50.7397 14.2C51.193 14.12 51.6463 14.0733 52.0997 14.06C52.553 14.0333 52.9797 14.02 53.3797 14.02H53.9797V13.76C53.9797 13.16 53.773 12.7133 53.3597 12.42C52.9464 12.1133 52.4197 11.96 51.7797 11.96C51.273 11.96 50.7997 12.0533 50.3597 12.24C49.9197 12.4133 49.5397 12.6533 49.2197 12.96L47.9597 11.7C48.493 11.1533 49.113 10.76 49.8197 10.52C50.5397 10.28 51.2797 10.16 52.0397 10.16C52.7197 10.16 53.293 10.24 53.7597 10.4C54.2263 10.5467 54.613 10.74 54.9197 10.98C55.2263 11.22 55.4597 11.5 55.6197 11.82C55.793 12.1267 55.913 12.44 55.9797 12.76C56.0597 13.08 56.1063 13.3933 56.1197 13.7C56.133 13.9933 56.1397 14.2533 56.1397 14.48V20H53.9797V18.68ZM53.8397 15.7H53.3397C53.0064 15.7 52.633 15.7133 52.2197 15.74C51.8063 15.7667 51.413 15.8333 51.0397 15.94C50.6797 16.0333 50.373 16.18 50.1197 16.38C49.8663 16.5667 49.7397 16.8333 49.7397 17.18C49.7397 17.4067 49.7863 17.6 49.8797 17.76C49.9863 17.9067 50.1197 18.0333 50.2797 18.14C50.4397 18.2467 50.6197 18.3267 50.8197 18.38C51.0197 18.42 51.2197 18.44 51.4197 18.44C52.2463 18.44 52.853 18.2467 53.2397 17.86C53.6397 17.46 53.8397 16.92 53.8397 16.24V15.7Z" fill="black"/>
<path d="M58.7219 10.4H61.1219V11.92H61.1619C61.4285 11.36 61.8085 10.9267 62.3019 10.62C62.7952 10.3133 63.3619 10.16 64.0019 10.16C64.1485 10.16 64.2885 10.1733 64.4219 10.2C64.5685 10.2267 64.7152 10.26 64.8619 10.3V12.62C64.6619 12.5667 64.4619 12.5267 64.2619 12.5C64.0752 12.46 63.8885 12.44 63.7019 12.44C63.1419 12.44 62.6885 12.5467 62.3419 12.76C62.0085 12.96 61.7485 13.1933 61.5619 13.46C61.3885 13.7267 61.2685 13.9933 61.2019 14.26C61.1485 14.5267 61.1219 14.7267 61.1219 14.86V20H58.7219V10.4Z" fill="black"/>
<path d="M68.0637 16.04C68.1437 16.76 68.4237 17.32 68.9037 17.72C69.3838 18.12 69.9637 18.32 70.6437 18.32C71.2437 18.32 71.7437 18.2 72.1437 17.96C72.5571 17.7067 72.9171 17.3933 73.2237 17.02L74.9437 18.32C74.3838 19.0133 73.7571 19.5067 73.0637 19.8C72.3704 20.0933 71.6437 20.24 70.8837 20.24C70.1637 20.24 69.4837 20.12 68.8437 19.88C68.2037 19.64 67.6504 19.3 67.1837 18.86C66.7171 18.42 66.3437 17.8933 66.0637 17.28C65.7971 16.6533 65.6637 15.96 65.6637 15.2C65.6637 14.44 65.7971 13.7533 66.0637 13.14C66.3437 12.5133 66.7171 11.98 67.1837 11.54C67.6504 11.1 68.2037 10.76 68.8437 10.52C69.4837 10.28 70.1637 10.16 70.8837 10.16C71.5504 10.16 72.1571 10.28 72.7037 10.52C73.2637 10.7467 73.7371 11.08 74.1237 11.52C74.5238 11.96 74.8304 12.5067 75.0437 13.16C75.2704 13.8 75.3837 14.54 75.3837 15.38V16.04H68.0637ZM72.9837 14.24C72.9704 13.5333 72.7504 12.98 72.3237 12.58C71.8971 12.1667 71.3037 11.96 70.5437 11.96C69.8237 11.96 69.2504 12.1667 68.8237 12.58C68.4104 12.9933 68.1571 13.5467 68.0637 14.24H72.9837Z" fill="black"/>
<path d="M79.5481 16.04C79.6281 16.76 79.9081 17.32 80.3881 17.72C80.8681 18.12 81.4481 18.32 82.1281 18.32C82.7281 18.32 83.2281 18.2 83.6281 17.96C84.0415 17.7067 84.4015 17.3933 84.7081 17.02L86.4281 18.32C85.8681 19.0133 85.2415 19.5067 84.5481 19.8C83.8548 20.0933 83.1281 20.24 82.3681 20.24C81.6481 20.24 80.9681 20.12 80.3281 19.88C79.6881 19.64 79.1348 19.3 78.6681 18.86C78.2015 18.42 77.8281 17.8933 77.5481 17.28C77.2814 16.6533 77.1481 15.96 77.1481 15.2C77.1481 14.44 77.2814 13.7533 77.5481 13.14C77.8281 12.5133 78.2015 11.98 78.6681 11.54C79.1348 11.1 79.6881 10.76 80.3281 10.52C80.9681 10.28 81.6481 10.16 82.3681 10.16C83.0348 10.16 83.6414 10.28 84.1881 10.52C84.7481 10.7467 85.2215 11.08 85.6081 11.52C86.0081 11.96 86.3148 12.5067 86.5281 13.16C86.7548 13.8 86.8681 14.54 86.8681 15.38V16.04H79.5481ZM84.4681 14.24C84.4548 13.5333 84.2348 12.98 83.8081 12.58C83.3815 12.1667 82.7881 11.96 82.0281 11.96C81.3081 11.96 80.7348 12.1667 80.3081 12.58C79.8948 12.9933 79.6414 13.5467 79.5481 14.24H84.4681Z" fill="black"/>
<path d="M89.1125 10.4H91.5125V11.92H91.5525C91.8192 11.36 92.1992 10.9267 92.6925 10.62C93.1858 10.3133 93.7525 10.16 94.3925 10.16C94.5392 10.16 94.6792 10.1733 94.8125 10.2C94.9592 10.2267 95.1058 10.26 95.2525 10.3V12.62C95.0525 12.5667 94.8525 12.5267 94.6525 12.5C94.4658 12.46 94.2792 12.44 94.0925 12.44C93.5325 12.44 93.0792 12.5467 92.7325 12.76C92.3992 12.96 92.1392 13.1933 91.9525 13.46C91.7792 13.7267 91.6592 13.9933 91.5925 14.26C91.5392 14.5267 91.5125 14.7267 91.5125 14.86V20H89.1125V10.4Z" fill="black"/>
<path d="M96.9659 12.72C96.9659 12.3733 96.9526 12.0267 96.9259 11.68C96.9126 11.3333 96.8926 10.9867 96.8659 10.64H98.2859V12.06H98.3259C98.6459 11.5133 99.0859 11.1 99.6459 10.82C100.219 10.54 100.786 10.4 101.346 10.4C101.599 10.4 101.866 10.4267 102.146 10.48C102.439 10.5333 102.719 10.6333 102.986 10.78C103.253 10.9133 103.499 11.1067 103.726 11.36C103.966 11.6133 104.166 11.94 104.326 12.34C104.593 11.74 105.013 11.2667 105.586 10.92C106.173 10.5733 106.779 10.4 107.406 10.4C108.606 10.4 109.493 10.72 110.066 11.36C110.639 11.9867 110.926 12.8867 110.926 14.06V20H109.606V14.54C109.606 13.5933 109.439 12.8667 109.106 12.36C108.773 11.8533 108.153 11.6 107.246 11.6C106.753 11.6 106.339 11.7 106.006 11.9C105.673 12.0867 105.399 12.34 105.186 12.66C104.986 12.98 104.839 13.3467 104.746 13.76C104.653 14.16 104.606 14.58 104.606 15.02V20H103.286V14.54C103.286 13.5933 103.119 12.8667 102.786 12.36C102.453 11.8533 101.833 11.6 100.926 11.6C100.846 11.6 100.659 11.6267 100.366 11.68C100.086 11.7333 99.7926 11.88 99.4859 12.12C99.1793 12.36 98.8993 12.72 98.6459 13.2C98.4059 13.68 98.2859 14.3467 98.2859 15.2V20H96.9659V12.72Z" fill="black"/>
<path d="M122.017 15.32C122.017 14.8 121.931 14.3133 121.757 13.86C121.597 13.4067 121.364 13.0133 121.057 12.68C120.751 12.3467 120.377 12.0867 119.937 11.9C119.511 11.7 119.024 11.6 118.477 11.6C117.931 11.6 117.437 11.7 116.997 11.9C116.571 12.0867 116.204 12.3467 115.897 12.68C115.604 13.0133 115.371 13.4067 115.197 13.86C115.037 14.3133 114.957 14.8 114.957 15.32C114.957 15.84 115.037 16.3267 115.197 16.78C115.371 17.2333 115.604 17.6267 115.897 17.96C116.204 18.2933 116.571 18.56 116.997 18.76C117.437 18.9467 117.931 19.04 118.477 19.04C119.024 19.04 119.511 18.9467 119.937 18.76C120.377 18.56 120.751 18.2933 121.057 17.96C121.364 17.6267 121.597 17.2333 121.757 16.78C121.931 16.3267 122.017 15.84 122.017 15.32ZM123.457 15.32C123.457 16.0267 123.331 16.68 123.077 17.28C122.837 17.88 122.497 18.4 122.057 18.84C121.617 19.28 121.091 19.6267 120.477 19.88C119.877 20.12 119.211 20.24 118.477 20.24C117.757 20.24 117.091 20.12 116.477 19.88C115.877 19.6267 115.357 19.28 114.917 18.84C114.477 18.4 114.131 17.88 113.877 17.28C113.637 16.68 113.517 16.0267 113.517 15.32C113.517 14.6133 113.637 13.96 113.877 13.36C114.131 12.76 114.477 12.24 114.917 11.8C115.357 11.36 115.877 11.02 116.477 10.78C117.091 10.5267 117.757 10.4 118.477 10.4C119.211 10.4 119.877 10.5267 120.477 10.78C121.091 11.02 121.617 11.36 122.057 11.8C122.497 12.24 122.837 12.76 123.077 13.36C123.331 13.96 123.457 14.6133 123.457 15.32Z" fill="black"/>
<path d="M132.673 12.84C132.446 12.4933 132.126 12.2 131.713 11.96C131.313 11.72 130.853 11.6 130.333 11.6C129.786 11.5867 129.293 11.6733 128.853 11.86C128.426 12.0467 128.059 12.3067 127.753 12.64C127.446 12.9733 127.213 13.3733 127.053 13.84C126.893 14.2933 126.813 14.7867 126.813 15.32C126.813 15.8533 126.893 16.3533 127.053 16.82C127.213 17.2733 127.446 17.6667 127.753 18C128.059 18.3333 128.426 18.5933 128.853 18.78C129.293 18.9667 129.786 19.0533 130.333 19.04C130.853 19.04 131.313 18.92 131.713 18.68C132.126 18.44 132.446 18.1467 132.673 17.8L133.753 18.62C133.286 19.1667 132.759 19.5733 132.173 19.84C131.586 20.0933 130.973 20.2267 130.333 20.24C129.573 20.2533 128.886 20.14 128.273 19.9C127.659 19.6467 127.133 19.3 126.693 18.86C126.266 18.42 125.939 17.9 125.713 17.3C125.486 16.6867 125.373 16.0267 125.373 15.32C125.373 14.6133 125.486 13.96 125.713 13.36C125.939 12.7467 126.266 12.22 126.693 11.78C127.133 11.34 127.659 11 128.273 10.76C128.886 10.5067 129.573 10.3867 130.333 10.4C130.973 10.4133 131.586 10.5533 132.173 10.82C132.759 11.0733 133.286 11.4733 133.753 12.02L132.673 12.84Z" fill="black"/>
<path d="M135.501 4.88H136.821V12.14H136.861C137.008 11.8867 137.194 11.6533 137.421 11.44C137.648 11.2267 137.901 11.0467 138.181 10.9C138.461 10.74 138.754 10.62 139.061 10.54C139.381 10.4467 139.694 10.4 140.001 10.4C141.201 10.4 142.088 10.72 142.661 11.36C143.234 11.9867 143.521 12.8867 143.521 14.06V20H142.201V14.82C142.201 13.78 142.021 12.9867 141.661 12.44C141.301 11.88 140.634 11.6 139.661 11.6C139.594 11.6 139.408 11.6267 139.101 11.68C138.794 11.7333 138.468 11.88 138.121 12.12C137.788 12.36 137.488 12.72 137.221 13.2C136.954 13.68 136.821 14.3467 136.821 15.2V20H135.501V4.88Z" fill="black"/>
<path d="M151.934 15.34C151.601 15.34 151.181 15.36 150.674 15.4C150.181 15.4267 149.701 15.5067 149.234 15.64C148.781 15.76 148.388 15.9533 148.054 16.22C147.734 16.4867 147.574 16.8533 147.574 17.32C147.574 17.6267 147.634 17.8933 147.754 18.12C147.888 18.3333 148.061 18.5133 148.274 18.66C148.488 18.7933 148.721 18.8933 148.974 18.96C149.241 19.0133 149.508 19.04 149.774 19.04C150.254 19.04 150.668 18.96 151.014 18.8C151.374 18.64 151.674 18.4267 151.914 18.16C152.154 17.88 152.328 17.56 152.434 17.2C152.554 16.8267 152.614 16.4333 152.614 16.02V15.34H151.934ZM152.614 14.26V14.02C152.614 12.4067 151.814 11.6 150.214 11.6C149.121 11.6 148.168 11.9667 147.354 12.7L146.554 11.76C147.434 10.8533 148.754 10.4 150.514 10.4C150.968 10.4 151.401 10.4667 151.814 10.6C152.241 10.7333 152.608 10.94 152.914 11.22C153.221 11.4867 153.468 11.8267 153.654 12.24C153.841 12.6533 153.934 13.1467 153.934 13.72V17.9C153.934 18.26 153.948 18.64 153.974 19.04C154.014 19.4267 154.054 19.7467 154.094 20H152.814C152.774 19.7733 152.741 19.5267 152.714 19.26C152.701 18.9933 152.694 18.7333 152.694 18.48H152.654C152.268 19.1067 151.808 19.56 151.274 19.84C150.754 20.1067 150.114 20.24 149.354 20.24C148.941 20.24 148.541 20.18 148.154 20.06C147.768 19.9533 147.421 19.7867 147.114 19.56C146.821 19.32 146.581 19.0333 146.394 18.7C146.221 18.3533 146.134 17.9533 146.134 17.5C146.134 16.74 146.328 16.1467 146.714 15.72C147.114 15.28 147.608 14.9533 148.194 14.74C148.794 14.5267 149.428 14.3933 150.094 14.34C150.774 14.2867 151.394 14.26 151.954 14.26H152.614Z" fill="black"/>
</svg>
