<svg width="32" height="33" viewBox="0 0 32 33" fill="none" xmlns="http://www.w3.org/2000/svg">
<path d="M16.0005 0.813477C12.3005 0.824227 8.72222 2.13592 5.89187 4.51897C3.06152 6.90201 1.15945 10.2046 0.518597 13.8486C-0.122259 17.4927 0.538921 21.246 2.38641 24.4518C4.2339 27.6575 7.14999 30.1113 10.6243 31.3837H10.7189C14.1308 32.6234 17.8701 32.6234 21.2821 31.3837H21.3767C24.851 30.1113 27.7671 27.6575 29.6146 24.4518C31.462 21.246 32.1232 17.4927 31.4824 13.8486C30.8415 10.2046 28.9395 6.90201 26.1091 4.51897C23.2788 2.13592 19.7004 0.824227 16.0005 0.813477ZM19.1537 28.7823C17.0871 29.3291 14.9139 29.3291 12.8473 28.7823V23.8476C13.7939 23.2595 14.8861 22.9479 16.0005 22.9479C17.1149 22.9479 18.2071 23.2595 19.1537 23.8476V28.7823ZM22.3069 27.4895V15.0029C22.725 15.0029 23.126 14.8368 23.4217 14.5411C23.7174 14.2454 23.8835 13.8444 23.8835 13.4263C23.8835 13.0081 23.7174 12.6071 23.4217 12.3114C23.126 12.0158 22.725 11.8497 22.3069 11.8497H19.1537C18.7355 11.8497 18.3345 12.0158 18.0389 12.3114C17.7432 12.6071 17.5771 13.0081 17.5771 13.4263C17.5771 13.8444 17.7432 14.2454 18.0389 14.5411C18.3345 14.8368 18.7355 15.0029 19.1537 15.0029V20.3475C17.1134 19.6262 14.8875 19.6262 12.8473 20.3475V15.0029C13.2654 15.0029 13.6664 14.8368 13.9621 14.5411C14.2578 14.2454 14.4239 13.8444 14.4239 13.4263C14.4239 13.0081 14.2578 12.6071 13.9621 12.3114C13.6664 12.0158 13.2654 11.8497 12.8473 11.8497H9.69409C9.27595 11.8497 8.87493 12.0158 8.57926 12.3114C8.2836 12.6071 8.11749 13.0081 8.11749 13.4263C8.11749 13.8444 8.2836 14.2454 8.57926 14.5411C8.87493 14.8368 9.27595 15.0029 9.69409 15.0029V27.4895C7.28956 26.1013 5.41031 23.9584 4.34778 21.3932C3.28526 18.8281 3.09885 15.984 3.81746 13.3021C4.53608 10.6202 6.11955 8.25036 8.3223 6.56013C10.5251 4.8699 13.224 3.95374 16.0005 3.95374C18.777 3.95374 21.4759 4.8699 23.6787 6.56013C25.8814 8.25036 27.4649 10.6202 28.1835 13.3021C28.9021 15.984 28.7157 18.8281 27.6532 21.3932C26.5907 23.9584 24.7114 26.1013 22.3069 27.4895Z"/>
</svg>
