<svg width="33" height="33" viewBox="0 0 33 33" fill="none" xmlns="http://www.w3.org/2000/svg">
<path d="M10.767 21.8082C10.4495 22.0748 10.25 22.4559 10.2117 22.8687C10.1734 23.2815 10.2993 23.6927 10.5623 24.0132C10.6945 24.1727 10.8569 24.3045 11.0401 24.4012C11.2233 24.4978 11.4239 24.5573 11.6301 24.5763C11.8364 24.5954 12.0445 24.5735 12.2423 24.512C12.4401 24.4505 12.6239 24.3506 12.783 24.218C13.8359 23.3691 15.1476 22.9062 16.5 22.9062C17.8524 22.9062 19.1641 23.3691 20.217 24.218C20.5004 24.4528 20.857 24.5809 21.225 24.5802C21.5456 24.5771 21.8577 24.4761 22.1194 24.2909C22.3811 24.1056 22.5801 23.8449 22.6896 23.5435C22.7992 23.2422 22.8142 22.9146 22.7326 22.6045C22.651 22.2944 22.4767 22.0166 22.233 21.8082C20.6078 20.5019 18.5852 19.7897 16.5 19.7897C14.4148 19.7897 12.3922 20.5019 10.767 21.8082ZM12.1058 14.264C12.4008 14.5573 12.8 14.722 13.2161 14.722C13.6322 14.722 14.0314 14.5573 14.3265 14.264C14.6198 13.9689 14.7845 13.5697 14.7845 13.1536C14.7845 12.7375 14.6198 12.3383 14.3265 12.0432C13.4252 11.188 12.23 10.7112 10.9875 10.7112C9.74499 10.7112 8.54984 11.188 7.6485 12.0432C7.48363 12.1844 7.34972 12.3582 7.25519 12.5536C7.16065 12.749 7.10752 12.9618 7.09915 13.1787C7.09077 13.3956 7.12732 13.6119 7.2065 13.814C7.28568 14.0161 7.40579 14.1997 7.55928 14.3532C7.71277 14.5067 7.89633 14.6268 8.09845 14.706C8.30056 14.7852 8.51686 14.8217 8.73376 14.8133C8.95067 14.805 9.1635 14.7518 9.35891 14.6573C9.55431 14.5628 9.72806 14.4288 9.86925 14.264C10.0157 14.1164 10.1899 13.9992 10.3818 13.9192C10.5737 13.8393 10.7796 13.7981 10.9875 13.7981C11.1954 13.7981 11.4013 13.8393 11.5932 13.9192C11.7851 13.9992 11.9593 14.1164 12.1058 14.264ZM16.5 0.813477C13.3849 0.813477 10.3398 1.7372 7.74977 3.46783C5.1597 5.19846 3.14098 7.65827 1.9489 10.5362C0.756824 13.4141 0.444922 16.5809 1.05264 19.6361C1.66036 22.6913 3.1604 25.4977 5.36307 27.7004C7.56575 29.9031 10.3721 31.4031 13.4273 32.0108C16.4825 32.6186 19.6493 32.3067 22.5273 31.1146C25.4052 29.9225 27.865 27.9038 29.5956 25.3137C31.3263 22.7236 32.25 19.6785 32.25 16.5635C32.25 14.4952 31.8426 12.4471 31.0511 10.5362C30.2596 8.62533 29.0995 6.88907 27.6369 5.42654C26.1744 3.96402 24.4381 2.80388 22.5273 2.01237C20.6164 1.22086 18.5683 0.813477 16.5 0.813477ZM16.5 29.1635C14.008 29.1635 11.5719 28.4245 9.49982 27.04C7.42776 25.6555 5.81279 23.6876 4.85912 21.3853C3.90546 19.0829 3.65594 16.5495 4.14211 14.1053C4.62829 11.6612 5.82832 9.41607 7.59046 7.65393C9.3526 5.89179 11.5977 4.69176 14.0419 4.20558C16.486 3.71941 19.0195 3.96893 21.3218 4.92259C23.6242 5.87626 25.592 7.49123 26.9765 9.56329C28.361 11.6353 29.1 14.0714 29.1 16.5635C29.1 19.9052 27.7725 23.1101 25.4095 25.473C23.0466 27.836 19.8417 29.1635 16.5 29.1635ZM25.3515 12.0432C24.4502 11.188 23.255 10.7112 22.0125 10.7112C20.77 10.7112 19.5748 11.188 18.6735 12.0432C18.4155 12.3445 18.2806 12.7321 18.296 13.1285C18.3113 13.5249 18.4756 13.9009 18.7561 14.1814C19.0366 14.4619 19.4126 14.6262 19.809 14.6415C20.2054 14.6568 20.593 14.522 20.8943 14.264C21.0407 14.1164 21.2149 13.9992 21.4068 13.9192C21.5987 13.8393 21.8046 13.7981 22.0125 13.7981C22.2204 13.7981 22.4263 13.8393 22.6182 13.9192C22.8101 13.9992 22.9843 14.1164 23.1307 14.264C23.4258 14.5573 23.825 14.722 24.2411 14.722C24.6572 14.722 25.0564 14.5573 25.3515 14.264C25.6448 13.9689 25.8095 13.5697 25.8095 13.1536C25.8095 12.7375 25.6448 12.3383 25.3515 12.0432Z"/>
</svg>
