<svg width="32" height="33" viewBox="0 0 32 33" fill="none" xmlns="http://www.w3.org/2000/svg">
<path d="M11.275 11.8385C10.9635 11.8385 10.659 11.9308 10.4 12.1039C10.141 12.277 9.9391 12.523 9.81989 12.8107C9.70069 13.0985 9.66949 13.4152 9.73027 13.7207C9.79104 14.0263 9.94104 14.3069 10.1613 14.5272C10.3816 14.7474 10.6622 14.8974 10.9677 14.9582C11.2733 15.019 11.5899 14.9878 11.8777 14.8686C12.1655 14.7494 12.4115 14.5475 12.5846 14.2885C12.7576 14.0295 12.85 13.725 12.85 13.4135C12.85 12.9958 12.6841 12.5951 12.3887 12.2998C12.0933 12.0044 11.6927 11.8385 11.275 11.8385ZM20.725 18.1385C19.3211 18.1384 17.9427 18.5137 16.7326 19.2253C15.5224 19.937 14.5245 20.9593 13.8423 22.1862C13.6369 22.5479 13.5829 22.976 13.6921 23.3773C13.8013 23.7786 14.0648 24.1204 14.425 24.3282C14.6604 24.4616 14.9262 24.5321 15.1968 24.533C15.4758 24.5325 15.7498 24.4579 15.9905 24.3167C16.2313 24.1756 16.4303 23.973 16.567 23.7297C16.9771 22.987 17.5795 22.3684 18.3112 21.9388C19.0428 21.5092 19.8766 21.2846 20.725 21.2885C21.1427 21.2885 21.5433 21.1225 21.8387 20.8272C22.1341 20.5318 22.3 20.1312 22.3 19.7135C22.3 19.2958 22.1341 18.8951 21.8387 18.5998C21.5433 18.3044 21.1427 18.1385 20.725 18.1385ZM20.725 11.8385C20.4135 11.8385 20.109 11.9308 19.85 12.1039C19.591 12.277 19.3891 12.523 19.2699 12.8107C19.1507 13.0985 19.1195 13.4152 19.1803 13.7207C19.241 14.0263 19.391 14.3069 19.6113 14.5272C19.8316 14.7474 20.1122 14.8974 20.4177 14.9582C20.7233 15.019 21.0399 14.9878 21.3277 14.8686C21.6155 14.7494 21.8615 14.5475 22.0346 14.2885C22.2076 14.0295 22.3 13.725 22.3 13.4135C22.3 12.9958 22.1341 12.5951 21.8387 12.2998C21.5433 12.0044 21.1427 11.8385 20.725 11.8385ZM16 0.813477C12.8849 0.813477 9.83985 1.7372 7.24977 3.46783C4.6597 5.19846 2.64098 7.65827 1.4489 10.5362C0.256824 13.4141 -0.0550782 16.5809 0.552639 19.6361C1.16036 22.6913 2.6604 25.4977 4.86307 27.7004C7.06575 29.9031 9.87213 31.4031 12.9273 32.0108C15.9825 32.6186 19.1493 32.3067 22.0273 31.1146C24.9052 29.9225 27.365 27.9038 29.0956 25.3137C30.8263 22.7236 31.75 19.6785 31.75 16.5635C31.75 14.4952 31.3426 12.4471 30.5511 10.5362C29.7596 8.62533 28.5995 6.88907 27.1369 5.42654C25.6744 3.96402 23.9381 2.80388 22.0273 2.01237C20.1164 1.22086 18.0683 0.813477 16 0.813477ZM16 29.1635C13.508 29.1635 11.0719 28.4245 8.99982 27.04C6.92776 25.6555 5.31279 23.6876 4.35912 21.3853C3.40546 19.0829 3.15594 16.5495 3.64211 14.1053C4.12829 11.6612 5.32832 9.41607 7.09046 7.65393C8.8526 5.89179 11.0977 4.69176 13.5419 4.20558C15.986 3.71941 18.5195 3.96893 20.8218 4.92259C23.1242 5.87626 25.092 7.49123 26.4765 9.56329C27.861 11.6353 28.6 14.0714 28.6 16.5635C28.6 19.9052 27.2725 23.1101 24.9095 25.473C22.5466 27.836 19.3417 29.1635 16 29.1635Z"/>
</svg>
