<svg width="33" height="33" viewBox="0 0 33 33" fill="none" xmlns="http://www.w3.org/2000/svg">
<path d="M20.217 20.0757C19.1641 20.9246 17.8524 21.3875 16.5 21.3875C15.1476 21.3875 13.8359 20.9246 12.783 20.0757C12.4614 19.8084 12.0467 19.6798 11.6302 19.7182C11.2138 19.7566 10.8296 19.9588 10.5623 20.2805C10.2949 20.6021 10.1663 21.0168 10.2047 21.4333C10.2431 21.8497 10.4454 22.2339 10.767 22.5012C12.3756 23.8441 14.4046 24.5796 16.5 24.5796C18.5954 24.5796 20.6244 23.8441 22.233 22.5012C22.5546 22.2339 22.7569 21.8497 22.7953 21.4333C22.8337 21.0168 22.7051 20.6021 22.4377 20.2805C22.3054 20.1212 22.1429 19.9896 21.9597 19.8931C21.7764 19.7966 21.576 19.7372 21.3698 19.7182C20.9533 19.6798 20.5386 19.8084 20.217 20.0757ZM11.775 14.9885C12.0865 14.9885 12.391 14.8961 12.65 14.723C12.909 14.55 13.1109 14.304 13.2301 14.0162C13.3493 13.7284 13.3805 13.4117 13.3197 13.1062C13.259 12.8007 13.109 12.52 12.8887 12.2998C12.6684 12.0795 12.3878 11.9295 12.0823 11.8687C11.7767 11.808 11.4601 11.8392 11.1723 11.9584C10.8845 12.0776 10.6385 12.2794 10.4654 12.5384C10.2924 12.7975 10.2 13.102 10.2 13.4135C10.2 13.8312 10.3659 14.2318 10.6613 14.5272C10.9567 14.8225 11.3573 14.9885 11.775 14.9885ZM21.225 11.8385C20.9135 11.8385 20.609 11.9308 20.35 12.1039C20.091 12.277 19.8891 12.523 19.7699 12.8107C19.6507 13.0985 19.6195 13.4152 19.6803 13.7207C19.741 14.0263 19.891 14.3069 20.1113 14.5272C20.3316 14.7474 20.6122 14.8974 20.9177 14.9582C21.2233 15.019 21.5399 14.9878 21.8277 14.8686C22.1155 14.7494 22.3615 14.5475 22.5346 14.2885C22.7076 14.0295 22.8 13.725 22.8 13.4135C22.8 12.9958 22.6341 12.5951 22.3387 12.2998C22.0433 12.0044 21.6427 11.8385 21.225 11.8385ZM16.5 0.813477C13.3849 0.813477 10.3398 1.7372 7.74977 3.46783C5.1597 5.19846 3.14098 7.65827 1.9489 10.5362C0.756824 13.4141 0.444922 16.5809 1.05264 19.6361C1.66036 22.6913 3.1604 25.4977 5.36307 27.7004C7.56575 29.9031 10.3721 31.4031 13.4273 32.0108C16.4825 32.6186 19.6493 32.3067 22.5273 31.1146C25.4052 29.9225 27.865 27.9038 29.5956 25.3137C31.3263 22.7236 32.25 19.6785 32.25 16.5635C32.25 14.4952 31.8426 12.4471 31.0511 10.5362C30.2596 8.62533 29.0995 6.88907 27.6369 5.42654C26.1744 3.96402 24.4381 2.80388 22.5273 2.01237C20.6164 1.22086 18.5683 0.813477 16.5 0.813477ZM16.5 29.1635C14.008 29.1635 11.5719 28.4245 9.49982 27.04C7.42776 25.6555 5.81279 23.6876 4.85912 21.3853C3.90546 19.0829 3.65594 16.5495 4.14211 14.1053C4.62829 11.6612 5.82832 9.41607 7.59046 7.65393C9.3526 5.89179 11.5977 4.69176 14.0419 4.20558C16.486 3.71941 19.0195 3.96893 21.3218 4.92259C23.6242 5.87626 25.592 7.49123 26.9765 9.56329C28.361 11.6353 29.1 14.0714 29.1 16.5635C29.1 19.9052 27.7725 23.1101 25.4095 25.473C23.0466 27.836 19.8417 29.1635 16.5 29.1635Z"/>
</svg>
