<svg width="32" height="32" viewBox="0 0 32 32" fill="none" xmlns="http://www.w3.org/2000/svg">
<path d="M11.275 14.5519C11.5865 14.5519 11.891 14.4596 12.15 14.2865C12.409 14.1135 12.6109 13.8675 12.7301 13.5797C12.8493 13.2919 12.8805 12.9752 12.8197 12.6697C12.759 12.3642 12.609 12.0835 12.3887 11.8633C12.1684 11.643 11.8878 11.493 11.5823 11.4322C11.2767 11.3714 10.9601 11.4026 10.6723 11.5218C10.3845 11.641 10.1385 11.8429 9.96544 12.1019C9.79238 12.3609 9.7 12.6654 9.7 12.9769C9.7 13.3947 9.86594 13.7953 10.1613 14.0906C10.4567 14.386 10.8573 14.5519 11.275 14.5519ZM16 0.376953C12.8849 0.376953 9.83985 1.30067 7.24977 3.03131C4.6597 4.76194 2.64098 7.22175 1.4489 10.0997C0.256824 12.9776 -0.0550782 16.1444 0.552639 19.1996C1.16036 22.2548 2.6604 25.0612 4.86307 27.2639C7.06575 29.4666 9.87213 30.9666 12.9273 31.5743C15.9825 32.182 19.1493 31.8701 22.0273 30.678C24.9052 29.486 27.365 27.4673 29.0956 24.8772C30.8263 22.2871 31.75 19.242 31.75 16.1269C31.75 14.0586 31.3426 12.0106 30.5511 10.0997C29.7596 8.18881 28.5995 6.45254 27.1369 4.99002C25.6744 3.5275 23.9381 2.36736 22.0273 1.57585C20.1164 0.784339 18.0683 0.376953 16 0.376953ZM16 28.7269C13.508 28.7269 11.0719 27.988 8.99982 26.6035C6.92776 25.219 5.31279 23.2511 4.35912 20.9488C3.40546 18.6464 3.15594 16.113 3.64211 13.6688C4.12829 11.2247 5.32832 8.97955 7.09046 7.21741C8.8526 5.45527 11.0977 4.25523 13.5419 3.76906C15.986 3.28288 18.5195 3.53241 20.8218 4.48607C23.1242 5.43973 25.092 7.05471 26.4765 9.12677C27.861 11.1988 28.6 13.6349 28.6 16.1269C28.6 19.4687 27.2725 22.6735 24.9095 25.0365C22.5466 27.3995 19.3417 28.7269 16 28.7269ZM20.725 17.7019H11.275C10.8573 17.7019 10.4567 17.8679 10.1613 18.1633C9.86594 18.4586 9.7 18.8592 9.7 19.2769C9.7 20.9478 10.3638 22.5502 11.5452 23.7317C12.7267 24.9132 14.3291 25.5769 16 25.5769C17.6709 25.5769 19.2733 24.9132 20.4548 23.7317C21.6363 22.5502 22.3 20.9478 22.3 19.2769C22.3 18.8592 22.1341 18.4586 21.8387 18.1633C21.5433 17.8679 21.1427 17.7019 20.725 17.7019ZM16 22.4269C15.4476 22.4264 14.9051 22.2806 14.4268 22.0041C13.9486 21.7277 13.5514 21.3303 13.2753 20.8519H18.7248C18.4486 21.3303 18.0514 21.7277 17.5732 22.0041C17.0949 22.2806 16.5524 22.4264 16 22.4269ZM20.725 11.4019C20.4135 11.4019 20.109 11.4943 19.85 11.6674C19.591 11.8404 19.3891 12.0864 19.2699 12.3742C19.1507 12.662 19.1195 12.9787 19.1803 13.2842C19.241 13.5897 19.391 13.8704 19.6113 14.0906C19.8316 14.3109 20.1122 14.4609 20.4177 14.5217C20.7233 14.5825 21.0399 14.5513 21.3277 14.4321C21.6155 14.3129 21.8615 14.111 22.0346 13.852C22.2076 13.593 22.3 13.2885 22.3 12.9769C22.3 12.5592 22.1341 12.1586 21.8387 11.8633C21.5433 11.5679 21.1427 11.4019 20.725 11.4019Z"/>
</svg>
